<?xml version="1.0" encoding="UTF-8"?>
<svg xmlns="http://www.w3.org/2000/svg" xmlns:xlink="http://www.w3.org/1999/xlink" width="20pt" height="20pt" viewBox="0 0 25 25" version="1.1">
<g id="surface6581585">
<path style="fill-rule:nonzero;fill:rgb(100%,75.686275%,2.745098%);fill-opacity:1;stroke-width:15;stroke-linecap:butt;stroke-linejoin:round;stroke:rgb(100%,100%,100%);stroke-opacity:1;stroke-miterlimit:10;" d="M 157.656929 86 C 157.656929 125.582201 125.582201 157.656929 86 157.656929 C 46.417799 157.656929 14.343071 125.582201 14.343071 86 C 14.343071 46.417799 46.417799 14.343071 86 14.343071 C 104.870924 14.343071 121.98913 21.704484 134.783967 33.622962 L 114.540082 53.89606 C 106.944973 47.148098 96.954484 43 86 43 C 62.250679 43 43 62.250679 43 86 C 43 109.749321 62.250679 129 86 129 C 104.724864 129 120.586957 117.023098 126.516984 100.343071 L 86 100.343071 L 86 71.656929 L 150.5 71.656929 L 150.5 71.978261 L 156.283967 71.978261 C 157.160326 76.506114 157.656929 81.209239 157.656929 86 Z M 157.656929 86 " transform="matrix(0.133721,0,0,0.133721,1,1)"/>
<path style="fill-rule:nonzero;fill:rgb(100%,23.921569%,0%);fill-opacity:1;stroke-width:15;stroke-linecap:butt;stroke-linejoin:round;stroke:rgb(100%,100%,100%);stroke-opacity:1;stroke-miterlimit:10;" d="M 86 14.343071 C 104.870924 14.343071 121.98913 21.704484 134.783967 33.622962 L 114.540082 53.89606 C 106.944973 47.148098 96.954484 43 86 43 C 67.947011 43 52.523098 54.129755 46.154891 69.904212 L 22.610054 52.639946 C 34.586957 29.883832 58.482337 14.343071 86 14.343071 Z M 86 14.343071 " transform="matrix(0.133721,0,0,0.133721,1,1)"/>
<path style="fill-rule:nonzero;fill:rgb(29.803922%,68.627451%,31.372549%);fill-opacity:1;stroke-width:15;stroke-linecap:butt;stroke-linejoin:round;stroke:rgb(100%,100%,100%);stroke-opacity:1;stroke-miterlimit:10;" d="M 22.201087 118.54212 L 45.570652 100.518342 C 51.529891 117.110734 67.362772 129 86 129 C 95.727582 129 104.66644 125.728261 111.881793 120.294837 L 134.053668 139.048913 C 121.317255 150.587636 104.52038 157.656929 86 157.656929 C 58.161005 157.656929 34.061141 141.736413 22.201087 118.54212 Z M 22.201087 118.54212 " transform="matrix(0.133721,0,0,0.133721,1,1)"/>
<path style="fill-rule:nonzero;fill:rgb(9.803922%,46.27451%,82.352941%);fill-opacity:1;stroke-width:15;stroke-linecap:butt;stroke-linejoin:round;stroke:rgb(100%,100%,100%);stroke-opacity:1;stroke-miterlimit:10;" d="M 157.656929 86 C 157.656929 121.843071 132.476223 140.480299 134.053668 139.048913 L 111.881793 120.294837 C 111.852582 120.294837 111.852582 120.294837 111.852582 120.294837 C 118.512908 115.27038 123.654212 108.347147 126.516984 100.343071 L 86 100.343071 L 86 71.656929 L 150.5 71.656929 L 150.5 71.978261 L 156.283967 71.978261 C 157.160326 76.506114 157.656929 81.209239 157.656929 86 Z M 111.852582 120.294837 Z M 111.852582 120.294837 " transform="matrix(0.133721,0,0,0.133721,1,1)"/>
<path style=" stroke:none;fill-rule:nonzero;fill:rgb(100%,75.686275%,2.745098%);fill-opacity:1;" d="M 21.898438 10.625 L 21.125 10.625 L 21.125 10.582031 L 12.5 10.582031 L 12.5 14.417969 L 17.917969 14.417969 C 17.125 16.648438 15.003906 18.25 12.5 18.25 C 9.324219 18.25 6.75 15.675781 6.75 12.5 C 6.75 9.324219 9.324219 6.75 12.5 6.75 C 13.964844 6.75 15.300781 7.304688 16.316406 8.207031 L 19.023438 5.496094 C 17.3125 3.902344 15.023438 2.917969 12.5 2.917969 C 7.207031 2.917969 2.917969 7.207031 2.917969 12.5 C 2.917969 17.792969 7.207031 22.082031 12.5 22.082031 C 17.792969 22.082031 22.082031 17.792969 22.082031 12.5 C 22.082031 11.859375 22.015625 11.230469 21.898438 10.625 Z M 21.898438 10.625 "/>
<path style=" stroke:none;fill-rule:nonzero;fill:rgb(100%,23.921569%,0%);fill-opacity:1;" d="M 4.023438 8.039062 L 7.171875 10.347656 C 8.023438 8.238281 10.085938 6.75 12.5 6.75 C 13.964844 6.75 15.300781 7.304688 16.316406 8.207031 L 19.023438 5.496094 C 17.3125 3.902344 15.023438 2.917969 12.5 2.917969 C 8.820312 2.917969 5.625 4.996094 4.023438 8.039062 Z M 4.023438 8.039062 "/>
<path style=" stroke:none;fill-rule:nonzero;fill:rgb(29.803922%,68.627451%,31.372549%);fill-opacity:1;" d="M 12.5 22.082031 C 14.976562 22.082031 17.222656 21.136719 18.925781 19.59375 L 15.960938 17.085938 C 14.996094 17.8125 13.800781 18.25 12.5 18.25 C 10.007812 18.25 7.890625 16.660156 7.09375 14.441406 L 3.96875 16.851562 C 5.554688 19.953125 8.777344 22.082031 12.5 22.082031 Z M 12.5 22.082031 "/>
<path style=" stroke:none;fill-rule:nonzero;fill:rgb(9.803922%,46.27451%,82.352941%);fill-opacity:1;" d="M 21.898438 10.625 L 21.125 10.625 L 21.125 10.582031 L 12.5 10.582031 L 12.5 14.417969 L 17.917969 14.417969 C 17.535156 15.488281 16.847656 16.414062 15.957031 17.085938 C 15.957031 17.085938 15.957031 17.085938 15.960938 17.085938 L 18.925781 19.59375 C 18.714844 19.785156 22.082031 17.292969 22.082031 12.5 C 22.082031 11.859375 22.015625 11.230469 21.898438 10.625 Z M 21.898438 10.625 "/>
</g>
</svg>
